<svg version="1" xmlns="http://www.w3.org/2000/svg" width="682.667" height="682.667" viewBox="0 0 512.000000 512.000000"><path d="M19 .9C12.1 3 6 8.2 2.4 15 .6 18.4.5 26.3.5 256v237.5l2.2 4c2.5 4.7 7.4 9.5 12.3 12.1 3.4 1.8 11.3 1.9 241 1.9h237.5l4-2.2c4.7-2.5 9.5-7.4 12.1-12.3 1.8-3.4 1.9-11.3 1.9-241s-.1-237.6-1.9-241c-2.6-4.9-7.4-9.8-12.1-12.3l-4-2.2-236-.2C127.7.2 20.4.5 19 .9zM432 224v160h-64V64h64v160zm-192 48v112h-64V160h64v112zm96 48v64h-64V256h64v64zm-192 16v48H80v-96h64v48zm352 112v32H16v-64h480v32z"/></svg>